{"title":"The Hangover III 2013 WEB DL MP3 XVID SSRG","uid":8781173,"size":879138299,"categoryP":"video","categoryS":"hd___movies","magnet":"?xt=urn:btih:9db15a0eff17f1dfab91192e0f9dd8ef05fc00ab&amp;dn=The+Hangover+III+2013+WEB+DL+MP3+XVID+SSRG&amp;tr=udp%3A%2F%2Ftracker.openbittorrent.com%3A80&amp;tr=udp%3A%2F%2Fopen.demonii.com%3A1337&amp;tr=udp%3A%2F%2Ftracker.coppersurfer.tk%3A6969&amp;tr=udp%3A%2F%2Fexodus.desync.com%3A6969","seeders":4,"leechers":0,"uploader":"AliBaloch","files":-1,"time":1375715110,"description":" &lt;a href=&quot;http://i874.photobucket.com/albums/ab306/worldwide7477/Custom%20Covers/The-Hangover-2013-Custom-Movie-Cover_zps238631d9.png&quot; rel=&quot;nofollow&quot; target=&quot;_NEW&quot;&gt;http://i874.photobucket.com/albums/ab306/worldwide7477/Custom%20Covers/The-Hangover-2013-Custom-Movie-Cover_zps238631d9.png&lt;/a&gt;\n\nFormat                                   : AVI\nFormat/Info                              : Audio Video Interleave\nFile size                                : 827 MiB\nDuration                                 : 1h 33mn\nOverall bit rate                         : 1 230 Kbps\n\nVideo\nID                                       : 0\nFormat                                   : MPEG-4 Visual\nFormat profile                           : Advanced Simple@L5\nFormat settings, BVOP                    : 2\nFormat settings, QPel                    : No\nFormat settings, GMC                     : No warppoints\nFormat settings, Matrix                  : Default (H.263)\nMuxing mode                              : Packed bitstream\nCodec ID                                 : XVID\nCodec ID/Hint                            : XviD\nDuration                                 : 1h 33mn\nBit rate                                 : 1 093 Kbps\nWidth                                    : 720 pixels\nHeight                                   : 292 pixels\nDisplay aspect ratio                     : 2.466\nFrame rate                               : 23.976 fps\nColor space                              : YUV\nChroma subsampling                       : 4:2:0\nBit depth                                : 8 bits\nScan type                                : Progressive\nCompression mode                         : Lossy\nBits/(Pixel*Frame)                       : 0.217\nStream size                              : 735 MiB (89%)\nWriting library                          : XviD 64\n\nAudio\nID                                       : 1\nFormat                                   : MPEG Audio\nFormat version                           : Version 1\nFormat profile                           : Layer 3\nMode                                     : Joint stereo\nMode extension                           : MS Stereo\nCodec ID                                 : 55\nCodec ID/Hint                            : MP3\nDuration                                 : 1h 33mn\nBit rate mode                            : Constant\nBit rate                                 : 128 Kbps\nChannel(s)                               : 2 channels\nSampling rate                            : 44.1 KHz\nCompression mode                         : Lossy\nDelay relative to video                  : 21ms\nStream size                              : 85.8 MiB (10%)\nAlignment                                : Split accross interleaves\nInterleave, duration                     : 42 ms (1.00 video frame)\nInterleave, preload duration             : 500 ms\n\n\n &lt;a href=&quot;\nhttp://img12.imageshack.us/img12/2791/rji6.png&quot; rel=&quot;nofollow&quot; target=&quot;_NEW&quot;&gt;\nhttp://img12.imageshack.us/img12/2791/rji6.png&lt;/a&gt;\n &lt;a href=&quot;\nhttp://img845.imageshack.us/img845/897/0tlm.png&quot; rel=&quot;nofollow&quot; target=&quot;_NEW&quot;&gt;\nhttp://img845.imageshack.us/img845/897/0tlm.png&lt;/a&gt;\n &lt;a href=&quot;\nhttp://img6.imageshack.us/img6/4216/eriy.png&quot; rel=&quot;nofollow&quot; target=&quot;_NEW&quot;&gt;\nhttp://img6.imageshack.us/img6/4216/eriy.png&lt;/a&gt;\n &lt;a href=&quot;\nhttp://img196.imageshack.us/img196/3342/jh13.png&quot; rel=&quot;nofollow&quot; target=&quot;_NEW&quot;&gt;\nhttp://img196.imageshack.us/img196/3342/jh13.png&lt;/a&gt;\n &lt;a href=&quot;\nhttp://img12.imageshack.us/img12/701/guep.png&quot; rel=&quot;nofollow&quot; target=&quot;_NEW&quot;&gt;\nhttp://img12.imageshack.us/img12/701/guep.png&lt;/a&gt;","torrent":{"xt":"urn:btih:9db15a0eff17f1dfab91192e0f9dd8ef05fc00ab","amp;dn":"The+Hangover+III+2013+WEB+DL+MP3+XVID+SSRG","amp;tr":["udp%3A%2F%2Ftracker.openbittorrent.com%3A80","udp%3A%2F%2Fopen.demonii.com%3A1337","udp%3A%2F%2Ftracker.coppersurfer.tk%3A6969","udp%3A%2F%2Fexodus.desync.com%3A6969"],"infoHash":"9db15a0eff17f1dfab91192e0f9dd8ef05fc00ab","infoHashBuffer":{"type":"Buffer","data":[157,177,90,14,255,23,241,223,171,145,25,46,15,157,216,239,5,252,0,171]},"announce":[],"urlList":[]}}